# xmcd CD database file
#
# Track frame offsets:
#	150
#	28925
#	45037
#	66507
#	100340
#	120385
#	137327
#	153415
#	174297
#	200755
#	219062
#	241340
#	256962
#
# Disc length: 3697 seconds
#
# Revision: 0
# Processed by: cddbd v1.5.1PL0 Copyright (c) Steve Scherf et al.
# Submitted via: CDex 1.51
#
DISCID=a80e6f0d
DTITLE=Elena Lasco - Imaginary Friend
DYEAR=2000
DGENRE=Jazz
TTITLE0=Step Adagio
TTITLE1=Jazz Waltz
TTITLE2=To Rodrigos
TTITLE3=Imaginary Friend
TTITLE4=Stolen Blues
TTITLE5=On the Russian Road
TTITLE6=Take 6
TTITLE7=Night and Day
TTITLE8=Misty
TTITLE9=Corvocado
TTITLE10=All the Things You Are
TTITLE11=John and Caroline
TTITLE12=Love and Playing by the Fire
EXTD=YEAR: 2000
EXTT0=
EXTT1=
EXTT2=
EXTT3=
EXTT4=
EXTT5=
EXTT6=
EXTT7=
EXTT8=
EXTT9=
EXTT10=
EXTT11=
EXTT12=
PLAYORDER=
